# xmcd
#
# Track frame offsets: 
#        150
#        12473
#        31348
#        46668
#        60451
#        74355
#        87574
#        103356
#        113976
#        125095
#        142619
#        152199
#        164977
#        179434
#        194357
#        209267
#        220835
#        230376
#        243110
#        257461
#        269917
#        280537
#        295436
#
# Disc length: 4071 seconds
#
# Revision: 0
# Processed by: cddbd v1.5.2PL0 Copyright (c) Steve Scherf et al.
# Submitted via: ExactAudioCopy v0.99pb5
#
DISCID=600fe517
DTITLE=Σ. Μπιρμπίλη - Τραγουδά Μ. Θεοδωράκη, Γ. Σπανό, Ν. Μαυρουδή
DYEAR=2010
DGENRE=Alternative
TTITLE0=Ο δρόμος
TTITLE1=Προδομένη αγάπη
TTITLE2=Απ' το παράθυρο σου
TTITLE3=Χάθηκα
TTITLE4=Μαρίνα
TTITLE5=Ανοιξιάτικο βραδάκι
TTITLE6=Η πικραμένη
TTITLE7=Το γελαστό παιδί
TTITLE8=Η αγάπη μου ήταν δέντρο
TTITLE9=Μέρα Μαγιού μου μίσεψες
TTITLE10=Η Μάγια
TTITLE11=Κίτρινο φθινόπωρο
TTITLE12=Ο καβαλάρης
TTITLE13=Ματωμένο φεγγάρι
TTITLE14=Νανούρισμα
TTITLE15=Θα σου δώσω
TTITLE16=Ήρθες, αγάπη μου
TTITLE17=Τα παιδιά της γειτονιάς
TTITLE18=Πρωϊνό (Τρία περιστέρια)
TTITLE19=Θα σου χαρίσω
TTITLE20=Κι αν μια βραδιά
TTITLE21=Γιατί αργείς, γιατί αργείς
TTITLE22=Πρωτομαγιά
EXTD=
EXTT0=
EXTT1=
EXTT2=
EXTT3=
EXTT4=
EXTT5=
EXTT6=
EXTT7=
EXTT8=
EXTT9=
EXTT10=
EXTT11=
EXTT12=
EXTT13=
EXTT14=
EXTT15=
EXTT16=
EXTT17=
EXTT18=
EXTT19=
EXTT20=
EXTT21=
EXTT22=
PLAYORDER=
